<svg width="43" height="47" viewBox="0 0 43 47" fill="none" xmlns="http://www.w3.org/2000/svg">
    <path fill-rule="evenodd" clip-rule="evenodd"
          d="M27.1186 0.372712C27.3892 0.188884 27.6877 0.0702632 27.997 0.0236364C28.3062 -0.0229903 28.6202 0.00329232 28.9209 0.100981C29.2216 0.198669 29.5032 0.365846 29.7494 0.592945C29.9957 0.820044 30.2019 1.10261 30.3561 1.42447L36.9197 15.071H38.178C38.8877 15.0568 39.5909 15.2321 40.236 15.5839C40.881 15.9356 41.4513 16.4549 41.9049 17.1034C42.3586 17.752 42.6839 18.5132 42.8569 19.3309C43.0299 20.1487 43.0463 21.0022 42.9047 21.8285L39.4269 42.4842V42.4917C39.2056 43.7803 38.612 44.9364 37.7487 45.7596C36.8855 46.5828 35.807 47.0214 34.7002 46.9992H8.30044C7.19364 47.0214 6.11519 46.5828 5.25193 45.7596C4.38868 44.9364 3.795 43.7803 3.57377 42.4917V42.4842L0.0959558 21.8322V21.8285C-0.0461587 21.0019 -0.0302388 20.148 0.142541 19.3298C0.31532 18.5115 0.640549 17.7498 1.09423 17.1009C1.5479 16.4519 2.11845 15.9323 2.76375 15.5803C3.40906 15.2283 4.11266 15.053 4.82262 15.0672H6.08096L12.6445 1.42071C12.799 1.09934 13.0052 0.817256 13.2514 0.59057C13.4976 0.363884 13.779 0.197033 14.0795 0.0995426C14.38 0.00205261 14.6937 -0.024167 15.0027 0.0223813C15.3117 0.0689296 15.61 0.187334 15.8805 0.370834C16.151 0.554334 16.3884 0.799336 16.5792 1.09185C16.77 1.38437 16.9105 1.71867 16.9925 2.07566C17.0746 2.43266 17.0966 2.80537 17.0575 3.1725C17.0183 3.53963 16.9186 3.894 16.7642 4.21537L11.5411 15.071H31.4532L26.2428 4.21537C25.9308 3.56723 25.8481 2.79845 26.0129 2.07793C26.1777 1.35741 26.5734 0.744087 27.1186 0.372712Z"
          fill="black"/>
    <path
        d="M4.04 33V23.77H5.496V31.713H10.449V33H4.04ZM15.2005 33.065C14.4638 33.065 13.8398 32.9393 13.3285 32.688C12.8258 32.4367 12.4185 32.0943 12.1065 31.661C11.8032 31.2277 11.5778 30.7337 11.4305 30.179C11.2918 29.6243 11.2225 29.048 11.2225 28.45V23.77H12.6785V28.45C12.6785 28.8747 12.7218 29.2863 12.8085 29.685C12.8952 30.075 13.0338 30.426 13.2245 30.738C13.4152 31.05 13.6708 31.297 13.9915 31.479C14.3208 31.661 14.7238 31.752 15.2005 31.752C15.6858 31.752 16.0888 31.661 16.4095 31.479C16.7388 31.2883 16.9945 31.037 17.1765 30.725C17.3672 30.4043 17.5058 30.049 17.5925 29.659C17.6792 29.269 17.7225 28.866 17.7225 28.45V23.77H19.1915V28.45C19.1915 29.0827 19.1135 29.6807 18.9575 30.244C18.8102 30.7987 18.5762 31.2883 18.2555 31.713C17.9435 32.129 17.5362 32.4583 17.0335 32.701C16.5308 32.9437 15.9198 33.065 15.2005 33.065ZM22.5839 26.474V33H21.1279V23.77H22.3239L27.5499 30.439V23.783H29.0189V33H27.7449L22.5839 26.474ZM33.7587 23.77H35.1367L38.7247 33H37.1907L36.2157 30.491H32.6537L31.6917 33H30.1447L33.7587 23.77ZM35.9297 29.412L34.4477 25.369L32.9137 29.412H35.9297Z"
        fill="white"/>
</svg>
