<svg width="8" height="9"
     viewBox="0 0 8 9" fill="none"
     xmlns="http://www.w3.org/2000/svg">
    <path
        d="M2.04678 9.00856V7.42652H0.899963V6.6704H2.04678V5.6351H0.899963V4.75101H2.04678V0.70285H4.52497C5.67619 0.70285 6.52861 0.908361 7.08225 1.31938C7.64468 1.7304 7.92589 2.32754 7.92589 3.11081C7.92589 3.90183 7.62271 4.52224 7.01634 4.97203C6.40998 5.41407 5.518 5.6351 4.34043 5.6351H3.23315V6.6704H5.40816V7.42652H3.23315V9.00856H2.04678ZM3.23315 4.75101H4.16906C4.96876 4.75101 5.58831 4.63469 6.0277 4.40203C6.47589 4.16938 6.69998 3.75061 6.69998 3.14571C6.69998 2.61836 6.51543 2.22673 6.14634 1.97081C5.77725 1.71489 5.20164 1.58693 4.41952 1.58693H3.23315V4.75101Z"
        fill="#122947"/>
</svg>
