<svg width="47" height="47" viewBox="0 0 47 47" fill="none" xmlns="http://www.w3.org/2000/svg">
    <path fill-rule="evenodd" clip-rule="evenodd"
          d="M22.625 0C19.5087 0 16.52 1.23794 14.3165 3.44149C12.1129 5.64505 10.875 8.63371 10.875 11.75C10.875 14.8663 12.1129 17.855 14.3165 20.0585C16.52 22.2621 19.5087 23.5 22.625 23.5C25.7413 23.5 28.73 22.2621 30.9335 20.0585C33.1371 17.855 34.375 14.8663 34.375 11.75C34.375 8.63371 33.1371 5.64505 30.9335 3.44149C28.73 1.23794 25.7413 0 22.625 0ZM16.75 26.4375C13.6337 26.4375 10.645 27.6754 8.44149 29.879C6.23794 32.0825 5 35.0712 5 38.1875V41.125C5 42.6831 5.61897 44.1775 6.72075 45.2793C7.82252 46.381 9.31685 47 10.875 47H34.375C35.9331 47 37.4275 46.381 38.5292 45.2793C39.631 44.1775 40.25 42.6831 40.25 41.125V38.1875C40.25 35.0712 39.0121 32.0825 36.8085 29.879C34.6049 27.6754 31.6163 26.4375 28.5 26.4375H16.75Z"
          fill="black"/>
</svg>
